<?xml version="1.0" standalone="no"?><?xml-stylesheet type="text/css" href="https://wps.processon.com/themes/default/wps/mind/icons/icons.css" ?><!DOCTYPE svg PUBLIC "-//W3C//DTD SVG 1.1//EN" "http://www.w3.org/Graphics/SVG/1.1/DTD/svg11.dtd"><svg id="SvgjsSvg1006" width="400" height="553" xmlns="http://www.w3.org/2000/svg" version="1.1" xmlns:xlink="http://www.w3.org/1999/xlink" xmlns:svgjs="http://svgjs.com/svgjs"><defs id="SvgjsDefs1007"><pattern patternUnits="userSpaceOnUse" id="pattern_mark_0" width="300" height="300"><text x="150" y="100" fill="rgba(229,229,229,0.8)" font-size="18" transform="rotate(-45, 150, 150)" style="dominant-baseline: middle; text-anchor: middle;"></text></pattern><pattern patternUnits="userSpaceOnUse" id="pattern_mark_1" width="300" height="300"><text x="150" y="200" fill="rgba(229,229,229,0.8)" font-size="18" transform="rotate(-45, 150, 150)" style="dominant-baseline: middle; text-anchor: middle;"></text></pattern><marker id="SvgjsMarker1035" markerWidth="14" markerHeight="10" refX="10" refY="5" viewBox="0 0 14 10" orient="auto" markerUnits="userSpaceOnUse" stroke-dasharray="0,0"><path id="SvgjsPath1036" d="M0,0 L14,5 L0,10 L0,0" fill="#323232" stroke="#323232" stroke-width="1"></path></marker><marker id="SvgjsMarker1043" markerWidth="14" markerHeight="10" refX="10" refY="5" viewBox="0 0 14 10" orient="auto" markerUnits="userSpaceOnUse" stroke-dasharray="0,0"><path id="SvgjsPath1044" d="M0,0 L14,5 L0,10 L0,0" fill="#323232" stroke="#323232" stroke-width="1"></path></marker><marker id="SvgjsMarker1047" markerWidth="14" markerHeight="10" refX="10" refY="5" viewBox="0 0 14 10" orient="auto" markerUnits="userSpaceOnUse" stroke-dasharray="0,0"><path id="SvgjsPath1048" d="M0,0 L14,5 L0,10 L0,0" fill="#323232" stroke="#323232" stroke-width="1"></path></marker><marker id="SvgjsMarker1051" markerWidth="14" markerHeight="10" refX="10" refY="5" viewBox="0 0 14 10" orient="auto" markerUnits="userSpaceOnUse" stroke-dasharray="0,0"><path id="SvgjsPath1052" d="M0,0 L14,5 L0,10 L0,0" fill="#323232" stroke="#323232" stroke-width="1"></path></marker><marker id="SvgjsMarker1091" markerWidth="14" markerHeight="10" refX="10" refY="5" viewBox="0 0 14 10" orient="auto" markerUnits="userSpaceOnUse" stroke-dasharray="0,0"><path id="SvgjsPath1092" d="M0,0 L14,5 L0,10 L0,0" fill="#323232" stroke="#323232" stroke-width="1"></path></marker><marker id="SvgjsMarker1095" markerWidth="14" markerHeight="10" refX="10" refY="5" viewBox="0 0 14 10" orient="auto" markerUnits="userSpaceOnUse" stroke-dasharray="0,0"><path id="SvgjsPath1096" d="M0,0 L14,5 L0,10 L0,0" fill="#323232" stroke="#323232" stroke-width="1"></path></marker><marker id="SvgjsMarker1099" markerWidth="14" markerHeight="10" refX="4" refY="5" viewBox="0 0 14 10" orient="auto" markerUnits="userSpaceOnUse" stroke-dasharray="0,0"><path id="SvgjsPath1100" d="M14,0 L0,5 L14,10 L14,0" fill="#323232" stroke="#323232" stroke-width="1"></path></marker><marker id="SvgjsMarker1101" markerWidth="14" markerHeight="10" refX="10" refY="5" viewBox="0 0 14 10" orient="auto" markerUnits="userSpaceOnUse" stroke-dasharray="0,0"><path id="SvgjsPath1102" d="M0,0 L14,5 L0,10 L0,0" fill="#323232" stroke="#323232" stroke-width="1"></path></marker></defs><rect id="svgbackgroundid" width="400" height="553" fill="transparent"></rect><rect id="SvgjsRect1009" width="400" height="553" fill="url(#pattern_mark_0)"></rect><rect id="SvgjsRect1010" width="400" height="553" fill="url(#pattern_mark_1)"></rect><g id="SvgjsG1011" transform="translate(149,25)"><path id="SvgjsPath1012" d="M 0 0L 226 0L 226 292L 0 292Z" stroke="rgba(246,237,193,1)" stroke-width="2" fill-opacity="1" fill="#f6edc1"></path><g id="SvgjsG1013"><text id="SvgjsText1014" font-family="微软雅黑" text-anchor="middle" font-size="13px" width="206px" fill="#323232" font-weight="400" align="middle" lineHeight="125%" anchor="middle" family="微软雅黑" size="13px" weight="400" font-style="" opacity="1" y="135.375" transform="rotate(0)"></text></g></g><g id="SvgjsG1015" transform="translate(170,63)"><path id="SvgjsPath1016" d="M 0 0L 184 0L 184 40L 0 40Z" stroke="none" fill="none"></path><g id="SvgjsG1017"><text id="SvgjsText1018" font-family="微软雅黑" text-anchor="middle" font-size="18px" width="184px" fill="#323232" font-weight="400" align="middle" lineHeight="125%" anchor="middle" family="微软雅黑" size="18px" weight="400" font-style="" opacity="1" y="4.25" transform="rotate(0)"><tspan id="SvgjsTspan1019" dy="22" x="92"><tspan id="SvgjsTspan1020" style="text-decoration:;">reg.predict(data);</tspan></tspan></text></g></g><g id="SvgjsG1021" transform="translate(170,160)"><path id="SvgjsPath1022" d="M 0 0L 73 0L 73 36L 0 36Z" stroke="rgba(202,237,180,1)" stroke-width="2" fill-opacity="1" fill="#caedb4"></path><g id="SvgjsG1023"><text id="SvgjsText1024" font-family="微软雅黑" text-anchor="middle" font-size="18px" width="53px" fill="#323232" font-weight="400" align="middle" lineHeight="125%" anchor="middle" family="微软雅黑" size="18px" weight="400" font-style="" opacity="1" y="2.25" transform="rotate(0)"><tspan id="SvgjsTspan1025" dy="22" x="36.5"><tspan id="SvgjsTspan1026" style="text-decoration:;">map</tspan></tspan></text></g></g><g id="SvgjsG1027" transform="translate(181,253)"><path id="SvgjsPath1028" d="M 0 0L 162 0L 162 36L 0 36Z" stroke="rgba(202,237,180,1)" stroke-width="2" fill-opacity="1" fill="#caedb4"></path><g id="SvgjsG1029"><text id="SvgjsText1030" font-family="微软雅黑" text-anchor="middle" font-size="18px" width="142px" fill="#323232" font-weight="400" align="middle" lineHeight="125%" anchor="middle" family="微软雅黑" size="18px" weight="400" font-style="" opacity="1" y="2.25" transform="rotate(0)"><tspan id="SvgjsTspan1031" dy="22" x="81"><tspan id="SvgjsTspan1032" style="text-decoration:;">adapter</tspan></tspan></text></g></g><g id="SvgjsG1033"><path id="SvgjsPath1034" d="M307 252L307 178L307 178L307 106.60000000000002" stroke="#323232" stroke-width="2" fill="none" marker-end="url(#SvgjsMarker1035)"></path></g><g id="SvgjsG1037" transform="translate(252,319.5)"><path id="SvgjsPath1038" d="M 0 10C 0 -3.3333333333333335 20 -3.3333333333333335 20 10C 20 23.333333333333332 0 23.333333333333332 0 10Z" stroke="rgba(33,41,48,1)" stroke-width="2" fill-opacity="1" fill="#ffffff"></path><g id="SvgjsG1039"><text id="SvgjsText1040" font-family="微软雅黑" text-anchor="middle" font-size="13px" width="0px" fill="#323232" font-weight="400" align="middle" lineHeight="125%" anchor="middle" family="微软雅黑" size="13px" weight="400" font-style="" opacity="1" y="-0.625" transform="rotate(0)"></text></g></g><g id="SvgjsG1041"><path id="SvgjsPath1042" d="M262 318.5L262 292.6" stroke="#323232" stroke-width="2" fill="none" marker-end="url(#SvgjsMarker1043)"></path></g><g id="SvgjsG1045"><path id="SvgjsPath1046" d="M206.5 159L206.5 131.5L206.5 131.5L206.5 106.60000000000002" stroke="#323232" stroke-width="2" fill="none" marker-end="url(#SvgjsMarker1047)"></path></g><g id="SvgjsG1049"><path id="SvgjsPath1050" d="M222 252L222 224.5L222 224.5L222 199.60000000000002" stroke="#323232" stroke-width="2" fill="none" marker-end="url(#SvgjsMarker1051)"></path></g><g id="SvgjsG1053" transform="translate(25,399)"><path id="SvgjsPath1054" d="M 0 0L 307 0L 307 129L 0 129Z" stroke="rgba(246,237,193,1)" stroke-width="2" fill-opacity="1" fill="#f6edc1"></path><g id="SvgjsG1055"><text id="SvgjsText1056" font-family="微软雅黑" text-anchor="middle" font-size="13px" width="287px" fill="#323232" font-weight="400" align="middle" lineHeight="125%" anchor="middle" family="微软雅黑" size="13px" weight="400" font-style="" opacity="1" y="53.875" transform="rotate(0)"></text></g></g><g id="SvgjsG1057" transform="translate(25,399)"><path id="SvgjsPath1058" d="M 0 0L 120 0L 120 40L 0 40Z" stroke="none" fill="none"></path><g id="SvgjsG1059"><text id="SvgjsText1060" font-family="微软雅黑" text-anchor="middle" font-size="20px" width="120px" fill="#323232" font-weight="700" align="middle" lineHeight="125%" anchor="middle" family="微软雅黑" size="20px" weight="700" font-style="" opacity="1" y="2" transform="rotate(0)"><tspan id="SvgjsTspan1061" dy="25" x="60"><tspan id="SvgjsTspan1062" style="text-decoration:;">Bus agent</tspan></tspan></text></g></g><g id="SvgjsG1063" transform="translate(149,28)"><path id="SvgjsPath1064" d="M 0 0L 120 0L 120 40L 0 40Z" stroke="none" fill="none"></path><g id="SvgjsG1065"><text id="SvgjsText1066" font-family="微软雅黑" text-anchor="middle" font-size="20px" width="120px" fill="#323232" font-weight="700" align="middle" lineHeight="125%" anchor="middle" family="微软雅黑" size="20px" weight="700" font-style="" opacity="1" y="2" transform="rotate(0)"><tspan id="SvgjsTspan1067" dy="25" x="60"><tspan id="SvgjsTspan1068" style="text-decoration:;">Predictor</tspan></tspan></text></g></g><g id="SvgjsG1069" transform="translate(214,454)"><path id="SvgjsPath1070" d="M 0 0L 96 0L 96 54L 0 54Z" stroke="rgba(202,237,180,1)" stroke-width="2" fill-opacity="1" fill="#caedb4"></path><g id="SvgjsG1071"><text id="SvgjsText1072" font-family="微软雅黑" text-anchor="middle" font-size="18px" width="76px" fill="#323232" font-weight="400" align="middle" lineHeight="125%" anchor="middle" family="微软雅黑" size="18px" weight="400" font-style="" opacity="1" y="11.25" transform="rotate(0)"><tspan id="SvgjsTspan1073" dy="22" x="48"><tspan id="SvgjsTspan1074" style="text-decoration:;">monitor</tspan></tspan></text></g></g><g id="SvgjsG1075" transform="translate(53,454)"><path id="SvgjsPath1076" d="M 0 0L 96 0L 96 54L 0 54Z" stroke="rgba(245,185,183,1)" stroke-width="2" fill-opacity="1" fill="#f5b9b7"></path><g id="SvgjsG1077"><text id="SvgjsText1078" font-family="微软雅黑" text-anchor="middle" font-size="18px" width="76px" fill="#323232" font-weight="400" align="middle" lineHeight="125%" anchor="middle" family="微软雅黑" size="18px" weight="400" font-style="" opacity="1" y="11.25" transform="rotate(0)"><tspan id="SvgjsTspan1079" dy="22" x="48"><tspan id="SvgjsTspan1080" style="text-decoration:;">···</tspan></tspan></text></g></g><g id="SvgjsG1081" transform="translate(252,432)"><path id="SvgjsPath1082" d="M 0 11L 10 0L 20 11L 10 22Z" stroke="rgba(33,41,48,1)" stroke-width="2" fill-opacity="1" fill="#ffffff"></path><g id="SvgjsG1083"><text id="SvgjsText1084" font-family="微软雅黑" text-anchor="middle" font-size="13px" width="0px" fill="#323232" font-weight="400" align="middle" lineHeight="125%" anchor="middle" family="微软雅黑" size="13px" weight="400" font-style="" opacity="1" y="0.4850000000000003" transform="rotate(0)"></text></g></g><g id="SvgjsG1085" transform="translate(252,388)"><path id="SvgjsPath1086" d="M 0 11L 10 0L 20 11L 10 22Z" stroke="rgba(33,41,48,1)" stroke-width="2" fill-opacity="1" fill="#ffffff"></path><g id="SvgjsG1087"><text id="SvgjsText1088" font-family="微软雅黑" text-anchor="middle" font-size="13px" width="0px" fill="#323232" font-weight="400" align="middle" lineHeight="125%" anchor="middle" family="微软雅黑" size="13px" weight="400" font-style="" opacity="1" y="0.4850000000000003" transform="rotate(0)"></text></g></g><g id="SvgjsG1089"><path id="SvgjsPath1090" d="M262 431L262 421L262 421L262 413.6" stroke="#323232" stroke-width="2" fill="none" marker-end="url(#SvgjsMarker1091)"></path></g><g id="SvgjsG1093"><path id="SvgjsPath1094" d="M262 387L262 343.1" stroke="#323232" stroke-width="2" fill="none" marker-end="url(#SvgjsMarker1095)"></path></g><g id="SvgjsG1097"><path id="SvgjsPath1098" d="M152.60000000000002 481L181.5 481L181.5 481L210.39999999999998 481" stroke="#323232" stroke-width="2" fill="none" marker-start="url(#SvgjsMarker1099)" marker-end="url(#SvgjsMarker1101)"></path></g><g id="SvgjsG1103" transform="translate(208,129)"><path id="SvgjsPath1104" d="M 0 0L 28 0L 28 20L 0 20Z" stroke="none" fill="none"></path><g id="SvgjsG1105"><text id="SvgjsText1106" font-family="微软雅黑" text-anchor="middle" font-size="13px" width="28px" fill="#323232" font-weight="400" align="middle" lineHeight="125%" anchor="middle" family="微软雅黑" size="13px" weight="400" font-style="" opacity="1" y="-0.625" transform="rotate(0)"><tspan id="SvgjsTspan1107" dy="16" x="14"><tspan id="SvgjsTspan1108" style="text-decoration:;">reg</tspan></tspan></text></g></g><g id="SvgjsG1109" transform="translate(306,218)"><path id="SvgjsPath1110" d="M 0 0L 42 0L 42 20L 0 20Z" stroke="none" fill="none"></path><g id="SvgjsG1111"><text id="SvgjsText1112" font-family="微软雅黑" text-anchor="middle" font-size="13px" width="42px" fill="#323232" font-weight="400" align="middle" lineHeight="125%" anchor="middle" family="微软雅黑" size="13px" weight="400" font-style="" opacity="1" y="-0.625" transform="rotate(0)"><tspan id="SvgjsTspan1113" dy="16" x="21"><tspan id="SvgjsTspan1114" style="text-decoration:;">data</tspan></tspan></text></g></g><g id="SvgjsG1115" transform="translate(225,218)"><path id="SvgjsPath1116" d="M 0 0L 53 0L 53 20L 0 20Z" stroke="none" fill="none"></path><g id="SvgjsG1117"><text id="SvgjsText1118" font-family="微软雅黑" text-anchor="middle" font-size="13px" width="53px" fill="#323232" font-weight="400" align="middle" lineHeight="125%" anchor="middle" family="微软雅黑" size="13px" weight="400" font-style="" opacity="1" y="-0.625" transform="rotate(0)"><tspan id="SvgjsTspan1119" dy="16" x="26.5"><tspan id="SvgjsTspan1120" style="text-decoration:;">address</tspan></tspan></text></g></g><g id="SvgjsG1121" transform="translate(265,361.25)"><path id="SvgjsPath1122" d="M 0 0L 100 0L 100 20L 0 20Z" stroke="none" fill="none"></path><g id="SvgjsG1123"><text id="SvgjsText1124" font-family="微软雅黑" text-anchor="middle" font-size="13px" width="100px" fill="#323232" font-weight="400" align="middle" lineHeight="125%" anchor="middle" family="微软雅黑" size="13px" weight="400" font-style="" opacity="1" y="-0.625" transform="rotate(0)"><tspan id="SvgjsTspan1125" dy="16" x="50"><tspan id="SvgjsTspan1126" style="text-decoration:;">bus transaction</tspan></tspan></text></g></g><g id="normal_brand" transform="translate(135,300.5)"><text id="SvgjsText1128" font-family="Helvetica, Arial, sans-serif" style="transform:rotate(-30deg);opacity: 0.06; color:#000; font-family: Microsoft Yahei;"><tspan id="SvgjsTspan1129" font-size="26" dy="0" x="0"></tspan></text></g></svg>